<svg id="ebedf0b3-954b-479a-9685-6994ff55cf80" data-name="Capa 1" xmlns="http://www.w3.org/2000/svg" xmlns:xlink="http://www.w3.org/1999/xlink" width="466.3" height="942.5" viewBox="0 0 466.3 942.5">
  <defs>
    <style>
      .ecea25de-abe9-4ae4-a690-057e998691d9 {
        fill: #fdb27f;
      }

      .edf6a9fb-678c-4246-8a5b-2975b7764795 {
        fill: #47200c;
      }

      .b22f48b8-d692-4c63-95aa-8bf6bd0caa41, .ee9b67fa-8e99-49d6-a3f3-e9e4083f708b {
        fill: #fff;
      }

      .abdb7c11-a8bc-464c-9a1c-01bcf21d001e, .b22f48b8-d692-4c63-95aa-8bf6bd0caa41 {
        stroke: #070000;
      }

      .a320087d-59c8-464d-95d0-00462074d8d4, .abdb7c11-a8bc-464c-9a1c-01bcf21d001e, .b22f48b8-d692-4c63-95aa-8bf6bd0caa41, .b266b5ff-a97d-4500-b823-3012da221023, .ead9497d-6d89-498e-8fd9-70a50809ae22 {
        stroke-miterlimit: 10;
      }

      .abdb7c11-a8bc-464c-9a1c-01bcf21d001e {
        fill: #041c4c;
      }

      .b050c79a-ae9f-42e5-b2c5-16f4ae97e3dd {
        fill: #feb27f;
      }

      .f25cc25f-d2d6-4411-a435-dae1e0b2481e {
        fill: #fffcfa;
      }

      .f254b8c7-a28e-4fdd-9d98-7a0d6d598940 {
        fill: #f28752;
      }

      .a320087d-59c8-464d-95d0-00462074d8d4, .b266b5ff-a97d-4500-b823-3012da221023, .ead9497d-6d89-498e-8fd9-70a50809ae22 {
        fill: none;
      }

      .ead9497d-6d89-498e-8fd9-70a50809ae22 {
        stroke: #f28752;
        stroke-width: 3px;
      }

      .a320087d-59c8-464d-95d0-00462074d8d4 {
        stroke: #c85a38;
        stroke-width: 2px;
      }

      .b266b5ff-a97d-4500-b823-3012da221023 {
        stroke: #7f7d7c;
        stroke-width: 0.5px;
      }
    </style>
  </defs>
  <title>personaje</title>
  <path id="af37f0e4-343f-4c8f-8514-ba81c085f1e1" data-name="cuerpo" class="ecea25de-abe9-4ae4-a690-057e998691d9" d="M53.9,253.4s-6.6,26.6-37.7-20c0,0-13.3-62.1,28.9-35.5l8.8,2.2S40.6,175.7,34,131.3c0,0-8.9-71,48.8-82.1,0,0,84.3-59.9,179.8-13.3,0,0,51,6.6,62.1,53.3,0,0,24.4,46.6-11.1,108.7,0,0,44.4-13.3,24.4,33.3,0,0-2.2,20-11.1,28.9,0,0-8.8,13.3-24.4,0,0,0,13.3,57.7-39.9,99.8,0,0-28.9,22.2-42.2,22.2v17.8l73.3,33.3,48.8,66.6s5.9,7.9,12.2,5a3,3,0,0,0,1.1-.6l39.9-51,11.1,6.6,4.5-6.6s-13.3-15.6-2.2-37.8l51-64.3s15.6-4.5,11.1,8.8l-17.7,28.9s8.8,4.4,8.8,8.9c0,0,8.9,2.2,6.7,8.9,0,0,6.8,5.1,7,9.3a5.7,5.7,0,0,1-.3,1.8s6.6,4.4,4.4,8.8c0,0-20,28.9-37.7,35.5,0,0-13.4,4.5-20,0l-4.5,6.7,13.4,8.9L360.2,553s-15.5,6.7-24.4-2.2c0,0-55.5-51-57.7-59.9s-22.2,128.7-22.2,128.7l6.7,293,53.2,22.2s6.7,11.1,0,15.5l-88.7-6.6,2.2-8.9s-22.2-273-42.2-273c0,0-17.7-13.3-28.8,57.7L136.1,930.4l2.2,11.1L60.6,957s-8.9-6.7-2.2-17.8c0,0,44.4-22.2,48.8-19.9l11.1-299.7L100.6,499.8s-6.7-26.7-8.9,2.2c0,0-8.9,79.9,19.9,113.2L93.9,639.6S42.8,586.3,49.5,553c0,0-4.4-106.5,17.8-117.6l79.9-37.7V382.1S51.7,375.5,53.9,253.4Z" transform="translate(-14.2 -15)"/>
  <path id="b28f8919-af2f-4372-9386-3651d15339ef" data-name="cabello" class="edf6a9fb-678c-4246-8a5b-2975b7764795" d="M56.2,213.5l-11-34.8s-33.4-96,11-117.2c0,0,31.6-29.2,52.4-26.3,0,0,74.1-45.9,154,.7,0,0,66.5,8.1,69.9,83.9,0,0,5.5,38.2-18.9,78.1,0,0-4.4,13.3-8.9,17.8,0,0-6.6-4.5-11-22.2,0,0,4.4-75.5-4.5-82.1,0,0-46.6,35.5-137.6,11.1,0,0,2.2,17.7,79.9,15.5,0,0-68.8,24.4-146.5-20,0,0-13.3-6.6-11.1,66.6C73.9,184.6,65,213.5,56.2,213.5Z" transform="translate(-14.2 -15)"/>
  <g id="ab0a2092-0504-470e-9b0a-54f8cdf42584" data-name="tenis">
    <path id="e3f8620e-16b7-4833-8678-051d8c55e718" data-name="tenisder" class="b22f48b8-d692-4c63-95aa-8bf6bd0caa41" d="M226,944.8l3.2-9.8s32.3-16.8,34.5-23.5l52.1,23.3s6.7,11.1,0,15.5Z" transform="translate(-14.2 -15)"/>
    <path id="a4fff72b-a25d-4430-afea-fe8cab56a49c" data-name="tenisizq" class="b22f48b8-d692-4c63-95aa-8bf6bd0caa41" d="M107.2,919.3s-6.6-2.3-48.8,19.9c0,0-6.7,11.1,2.2,17.8l77.7-15.5s-3.5-13.4-1.8-15.6C136.5,925.9,113.9,923.7,107.2,919.3Z" transform="translate(-14.2 -15)"/>
  </g>
  <path id="ec8aca71-c319-43e7-9b49-1b299532b900" data-name="pantalon" class="abdb7c11-a8bc-464c-9a1c-01bcf21d001e" d="M136.1,925.9s-22.2-2.2-28.9-6.6l11.1-299.7H255.9l6.7,293s0,8.9-33.3,22.2c0,0-25.7-239.6-29.5-241.9,0,0-10.1-68.2-34.7-5.3Z" transform="translate(-14.2 -15)"/>
  <path id="abddf371-2630-436d-9e6d-4476a8c7a501" data-name="manoizq" class="b050c79a-ae9f-42e5-b2c5-16f4ae97e3dd" d="M95,640.7,106.1,654s2.2,2.3,4.4-2.2c0,0,4.5-2.2,4.5-4.4h0s2.2-2.2,2.2-6.7v-20l-6.7-4.4Z" transform="translate(-14.2 -15)"/>
  <path id="a4496915-0676-4d2c-a2cf-e9ffcec479de" data-name="playera" d="M118.3,619.6H255.9l22.2-130.9s10.5,25.4,59.7,63.7c0,0,11.3,7.3,22.4.6l71.1-75.4-35.6-24.4-39.9,51s-6.7,4.5-13.3-4.4l-48.8-66.6-73.3-33.3s-37.7,28.8-73.2-2.2L67.3,435.4s-12.1,7.1-13.8,31.3c0,0-10.7,59.7-4,86.3,0,0-8.9,28.9,44.4,86.6l17.7-24.4S88.2,587.4,92.2,497c0,0,2.1-16.6,8.1,2.9a10.5,10.5,0,0,1,.5,1.9C107.2,524.2,118.3,619.6,118.3,619.6Z" transform="translate(-14.2 -15)"/>
  <g id="b3efda67-cfef-4284-9f19-c7b7d80689a4" data-name="cejas">
    <path id="bd15a516-c9a1-4dc1-960c-2bd031d22d45" data-name="cejaizq" class="edf6a9fb-678c-4246-8a5b-2975b7764795" d="M83.9,187.9s42.2-17.7,57.7-11.1c0,0,8.9-15.5,0-22.2,0,0-46.6,11.1-57.7,26.7Z" transform="translate(-14.2 -15)"/>
    <path id="aeb49085-b818-4d8e-a6af-90e64fced254" data-name="cejader" class="edf6a9fb-678c-4246-8a5b-2975b7764795" d="M219.3,174.6s-4.4-15.5,0-20c0,0,44.4,8.9,59.9,24.4v8.9S232.6,172.4,219.3,174.6Z" transform="translate(-14.2 -15)"/>
  </g>
  <image width="384" height="384" transform="translate(123 430.4) scale(0.29)" xlink:href="../1_To2H39eauxaeYxYMtV1afQ.png"/>
  <g id="f89b21a6-ce6a-4b99-8704-a03a78b1881e" data-name="ojoIzq">
    <circle id="a2ced671-dae2-43da-92a1-333a31de5bd1" data-name="ojoblancoizq" class="f25cc25f-d2d6-4411-a435-dae1e0b2481e" cx="109.6" cy="201.8" r="20"/>
    <circle id="b3582380-607d-442f-a878-f0d6083384e0" data-name="pupilaiz" cx="110.8" cy="202.9" r="10"/>
  </g>
  <g id="af13ae57-e213-4012-8100-27b104cccae0" data-name="ojoder">
    <circle id="af006712-9c43-451b-8e4c-57be3de9b780" data-name="ojoblancoder" class="f25cc25f-d2d6-4411-a435-dae1e0b2481e" cx="231.7" cy="201.8" r="20"/>
    <circle id="e9f90e05-8a3c-4f79-aef0-6227e760adaa" data-name="pupilader" cx="232.8" cy="202.9" r="10"/>
  </g>
  <g id="b1a8e1c3-402f-4577-ba7e-501d771b2ace" data-name="parpados">
    <circle class="f254b8c7-a28e-4fdd-9d98-7a0d6d598940" cx="109.6" cy="201.8" r="20"/>
    <circle class="f254b8c7-a28e-4fdd-9d98-7a0d6d598940" cx="231.7" cy="201.8" r="20"/>
  </g>
  <path class="ead9497d-6d89-498e-8fd9-70a50809ae22" d="M154.9,278.9s26.7,26.7,53.3,0" transform="translate(-14.2 -15)"/>
  <path id="aa10bc5d-4102-444d-abdc-d4f109d8da73" data-name="sonrisa1" class="a320087d-59c8-464d-95d0-00462074d8d4" d="M144.9,322.2s62.2,17.8,79.9-11.1" transform="translate(-14.2 -15)"/>
  <g id="b80d6b53-c4a9-4a62-9e3a-2916b45f6a10" data-name="sonrisa2">
    <path class="ee9b67fa-8e99-49d6-a3f3-e9e4083f708b" d="M121.6,305.6s60,68.8,124.3,0C245.9,305.6,186,327.8,121.6,305.6Z" transform="translate(-14.2 -15)"/>
    <path class="b266b5ff-a97d-4500-b823-3012da221023" d="M128.6,312.4s55.2,26,108.5,1.8" transform="translate(-14.2 -15)"/>
    <line class="b266b5ff-a97d-4500-b823-3012da221023" x1="133.5" y1="297.4" x2="131.2" y2="309.5"/>
    <line class="b266b5ff-a97d-4500-b823-3012da221023" x1="144.1" y1="299" x2="141.6" y2="314.8"/>
    <line class="b266b5ff-a97d-4500-b823-3012da221023" x1="158.5" y1="299.4" x2="154.8" y2="318.7"/>
    <line class="b266b5ff-a97d-4500-b823-3012da221023" x1="171.9" y1="300" x2="169.3" y2="320.7"/>
    <line class="b266b5ff-a97d-4500-b823-3012da221023" x1="185.3" y1="300" x2="185.3" y2="319.6"/>
    <line class="b266b5ff-a97d-4500-b823-3012da221023" x1="195.3" y1="299" x2="195.3" y2="316.5"/>
    <line class="b266b5ff-a97d-4500-b823-3012da221023" x1="204.2" y1="297.4" x2="205.1" y2="311.9"/>
    <line class="b266b5ff-a97d-4500-b823-3012da221023" x1="212.7" y1="295.7" x2="214.6" y2="305.9"/>
  </g>
</svg>
